# xmcd
#
# Track frame offsets:
#	150
#	9924
#	23390
#	33686
#	44701
#	57516
#	69331
#	80687
#	93069
#	102513
#	116425
#	130145
#	141473
#	151702
#	164546
#	176594
#	188842
#	200225
#	209932
#	222475
#	234597
#	246589
#	259272
#	271407
#
# Disc length: 3802 seconds
#
# Revision: 0
# Processed by: cddbd v1.5.2PL0 Copyright (c) Steve Scherf et al.
# Submitted via: dBpowerAMP V4.0
#
DISCID=6d0ed818
DTITLE=Rex Allen - Sky Boss
DYEAR=1900
DGENRE=Country
TTITLE0=Wringle Wrangle
TTITLE1=The Ballad of John Colter
TTITLE2=I'm Lonely My Darlin' (Green Grow The Lilacs)
TTITLE3=Westward Ho The Wagons
TTITLE4=Drango
TTITLE5=Little White Horse
TTITLE6=Blue Dream
TTITLE7=Blue Light Waltz
TTITLE8=The Last Frontier
TTITLE9=Sky Boss
TTITLE10=In The Chapel In the Moonlight
TTITLE11=Chapel Of Memories
TTITLE12=Hawaiian Cowboy
TTITLE13=Put Your Arms Around Me
TTITLE14=Softly And Tenderly
TTITLE15=Flower Of San Antone
TTITLE16=Money Marbles And Chalk
TTITLE17=Tomorrow Is Another Day To Cry
TTITLE18=Bringing Home The Bacon
TTITLE19=True Blue Lue Lu Lu
TTITLE20=The Last Carouse
TTITLE21=Lonely Little Robin
TTITLE22=The Roving Kind
TTITLE23=Crying In The Chapel
EXTD=
EXTT0=
EXTT1=
EXTT2=
EXTT3=
EXTT4=
EXTT5=
EXTT6=
EXTT7=
EXTT8=
EXTT9=
EXTT10=
EXTT11=
EXTT12=
EXTT13=
EXTT14=
EXTT15=
EXTT16=
EXTT17=
EXTT18=
EXTT19=
EXTT20=
EXTT21=
EXTT22=
EXTT23=
PLAYORDER=
